<svg width="16" height="12" viewBox="0 0 16 12" fill="none" xmlns="http://www.w3.org/2000/svg">
<path d="M7.49724 8.00008H3.16924L1.8359 11.3334H0.399902L4.66657 0.666748H5.9999L10.2666 11.3334H8.83057L7.49724 8.00008ZM6.9639 6.66675L5.33324 2.59008L3.70257 6.66675H6.9639ZM13.9999 6.35675V6.00008H15.3332V11.3334H13.9999V10.9767C13.5945 11.2106 13.1347 11.3336 12.6667 11.3334C12.1987 11.3333 11.739 11.2099 11.3338 10.9758C10.9285 10.7418 10.592 10.4051 10.3581 9.99982C10.1241 9.5945 10.0009 9.13474 10.0009 8.66675C10.0009 8.19875 10.1241 7.739 10.3581 7.33367C10.592 6.92835 10.9285 6.59174 11.3338 6.35765C11.739 6.12356 12.1987 6.00024 12.6667 6.00008C13.1347 5.99992 13.5945 6.12293 13.9999 6.35675ZM12.6666 10.0001C13.0202 10.0001 13.3593 9.85961 13.6094 9.60956C13.8594 9.35951 13.9999 9.02037 13.9999 8.66675C13.9999 8.31313 13.8594 7.97399 13.6094 7.72394C13.3593 7.47389 13.0202 7.33342 12.6666 7.33342C12.3129 7.33342 11.9738 7.47389 11.7238 7.72394C11.4737 7.97399 11.3332 8.31313 11.3332 8.66675C11.3332 9.02037 11.4737 9.35951 11.7238 9.60956C11.9738 9.85961 12.3129 10.0001 12.6666 10.0001Z" fill="white" fill-opacity="0.1"/>
</svg>
