<svg xmlns="http://www.w3.org/2000/svg" width="22" height="22" fill="none"><path fill="#000" d="m18.467 7.694.246-.566a4.36 4.36 0 0 1 2.22-2.25l.759-.339a.53.53 0 0 0 0-.963l-.717-.319A4.37 4.37 0 0 1 18.724.931L18.47.32a.506.506 0 0 0-.942 0l-.253.61a4.37 4.37 0 0 1-2.25 2.327l-.718.32a.53.53 0 0 0 0 .962l.76.338a4.36 4.36 0 0 1 2.219 2.251l.246.566c.18.414.754.414.935 0m-6.081-2.355q.411.65 1.124.961l.565.247q.57.25.924.698V12a5 5 0 0 1-10 0V6a5 5 0 0 1 7.996-4.003q-.36.27-.61.664A2.46 2.46 0 0 0 12 4q0 .726.386 1.339M.192 13.96l1.962-.392a8.003 8.003 0 0 0 15.692 0l1.962.392C18.896 18.545 14.852 22 10 22S1.104 18.545.192 13.961"/></svg>