<svg xmlns="http://www.w3.org/2000/svg" width="125" height="23" fill="none"><path fill="#fff" fill-opacity=".5" d="M0 22.632v-.343h1.475q.356-.27.356-.662V6.473q0-.392-.356-.662H0v-.343h7.503q7.45 0 7.451 4.512 0 2.378-1.933 3.678-1.906 1.275-5.188 1.275H6.282v6.694q0 .392.356.662h1.984v.343zm7.096-8.067q1.602 0 2.441-1.128.84-1.152.84-3.187 0-2.061-.89-3.237t-2.57-1.177h-.635v8.729z"/><path fill="#fff" fill-opacity=".5" d="M25.647 5.468h5.265v.343h-.865l-5.671 11.574q-1.119 2.305-1.908 3.457-.762 1.128-1.526 1.57-.737.44-1.805.44-.459 0-.687-.048l-.153-3.654q1.195.27 2.01.27 1.856 0 2.848-.883L15.6 5.811h-.763v-.343h9.563v.343h-1.857q-.915.294-.915 1.349 0 .883.636 2.035l3.077 5.42 2.594-5.346q.534-1.08.534-1.986 0-1.202-.966-1.472h-1.857zM39.121 23q-2.517 0-4.476-1.103-1.932-1.104-3.026-3.163-1.095-2.06-1.094-4.807 0-2.574 1.094-4.585a7.66 7.66 0 0 1 3.102-3.114Q36.758 5.1 39.453 5.1q2.289 0 4.018.76 1.755.76 2.773 2.207 1.042 1.447 1.144 3.457l-4.196.49q0-3.359-.89-4.952-.865-1.594-2.849-1.594-2.085 0-3.154 1.815-1.068 1.79-1.068 5.271 0 2.403.789 4.218.788 1.79 2.212 2.77 1.45.957 3.383.957 2.161 0 3.662-1.373 1.526-1.373 2.136-3.899l.356.074Q45.785 23 39.121 23M57.5 23q-2.517 0-4.476-1.103-1.932-1.104-3.026-3.163-1.095-2.06-1.094-4.807 0-2.574 1.094-4.585A7.66 7.66 0 0 1 53.1 6.228Q55.137 5.1 57.83 5.1q2.29 0 4.02.76 1.755.76 2.771 2.207 1.043 1.447 1.145 3.457l-4.197.49q0-3.359-.89-4.952-.865-1.594-2.848-1.594-2.086 0-3.154 1.815-1.068 1.79-1.068 5.271 0 2.403.789 4.218.788 1.79 2.212 2.77 1.45.957 3.383.957 2.161 0 3.662-1.373 1.526-1.373 2.136-3.899l.356.074Q64.163 23 57.5 23M67.232 22.632v-.343h1.475q.356-.27.356-.662V6.473q0-.392-.356-.662h-1.475v-.343h8.113v.343H73.87q-.356.27-.356.662v7.087h.661l5.01-5.272q.383-.393.585-.834.204-.465.204-.834 0-.637-.483-.809h-2.416v-.343h6.332v.343h-1.322l-5.138 5.346 6.74 9.66q.61.884.992 1.178.406.294.966.294v.343h-8.774v-.343h1.653q.306-.196.305-.711 0-.564-.305-1.03l-4.349-6.62h-.66v7.699q0 .392.355.662h1.475v.343z"/><path fill="#fff" fill-opacity=".5" d="M85.586 22.632v-.343h1.475q.357-.27.356-.662V6.473q0-.392-.356-.662h-1.475v-.343H93.7v.343h-1.475q-.356.27-.356.662v13.364L99.32 5.468h5.264v.343h-1.475q-.356.27-.356.662v15.154q0 .392.356.662h1.475v.343h-8.112v-.343h1.475q.356-.27.356-.662V8.263l-7.452 14.37zM106.002 22.632v-.343h1.475q.356-.27.356-.662V6.473q0-.392-.356-.662h-1.475v-.343h8.113v.343h-1.475q-.356.27-.356.662v13.364l7.451-14.369H125v.343h-1.475q-.356.27-.356.662v15.154q0 .392.356.662H125v.343h-8.113v-.343h1.475q.356-.27.356-.662V8.263l-7.452 14.37zm9.766-18.758q-2.468 0-3.993-.833-1.526-.859-1.78-2.354L113.81 0q0 1.715.483 2.6.509.882 1.475.882t1.45-.883q.508-.883.508-2.599l3.815.687q-.254 1.495-1.78 2.354-1.526.833-3.993.833"/></svg>