<svg xmlns="http://www.w3.org/2000/svg" width="137" height="18" fill="none"><path fill="#000" d="M0 17.63v-.345h1.47q.354-.27.354-.666V1.381q0-.394-.354-.666H0V.37h8.083v.345h-1.47q-.354.27-.354.666v7.126h.658l4.992-5.302q.38-.394.583-.838.202-.468.202-.838 0-.642-.48-.814H9.805V.37h6.31v.345h-1.318L9.679 6.09l6.715 9.716q.608.887.988 1.183.405.296.963.296v.345H9.603v-.345h1.647q.304-.198.304-.715 0-.567-.304-1.036L6.917 8.877H6.26v7.742q0 .395.354.666h1.47v.345zM26.99 18q-2.737 0-4.815-1.11a7.9 7.9 0 0 1-3.193-3.131q-1.14-2.022-1.14-4.685 0-2.712 1.14-4.759a7.9 7.9 0 0 1 3.269-3.18Q24.379 0 27.14 0q2.736 0 4.79 1.11a7.87 7.87 0 0 1 3.217 3.131q1.14 2.022 1.14 4.685 0 2.712-1.165 4.784-1.14 2.046-3.269 3.18Q29.751 18 26.989 18m.075-.37q2.23 0 3.32-2.12t1.089-6.411q0-4.415-1.09-6.56Q29.295.37 27.065.37t-3.32 2.121-1.089 6.411q0 4.414 1.09 6.584 1.09 2.145 3.32 2.145M46.375 18q-2.508 0-4.46-1.11-1.924-1.11-3.015-3.18-1.09-2.072-1.09-4.833 0-2.589 1.09-4.611a7.67 7.67 0 0 1 3.092-3.132Q44.018 0 46.705 0q2.28 0 4.003.764 1.749.765 2.762 2.22 1.038 1.454 1.14 3.476l-4.18.493q0-3.378-.888-4.98Q48.681.37 46.705.37q-2.079 0-3.142 1.825-1.065 1.8-1.065 5.3 0 2.418.786 4.242.785 1.8 2.204 2.786 1.444.962 3.37.962 2.154 0 3.649-1.38 1.52-1.382 2.128-3.921l.355.074Q53.013 18 46.375 18M55.564 17.63v-.345h1.14q.938-.912.938-3.501V1.38q0-.394-.355-.666h-1.47V.37h6.031l5.296 11.86L71.83.37h5.98v.345h-1.47q-.354.27-.354.666v15.238q0 .395.355.666h1.47v.345h-8.084v-.345h1.47q.355-.27.355-.666V2.096l-6.208 15.657h-.355L58.022 2.145v11.639q0 2.59.938 3.5h1.393v.346zM79.232 17.63v-.345h1.47q.354-.27.354-.666V1.381q0-.394-.355-.666h-1.47V.37h8.084v.345h-1.47q-.355.27-.355.666v13.438L92.915.37h5.244v.346h-1.47q-.354.27-.354.666v15.238q0 .395.355.666h1.47v.345h-8.083v-.345h1.47q.354-.27.354-.666V3.181l-7.424 14.45zM106.362 18q-3.47 0-5.194-1.553-1.698-1.579-1.546-4.34l3.928-.37q-.025.345-.025 1.01 0 2.442.633 3.675.658 1.208 2.052 1.208 1.37 0 2.053-1.183.71-1.185.709-3.33 0-4.437-3.344-4.438h-1.318v-.37h.963q1.672 0 2.458-.986.81-.985.81-3.057 0-1.998-.506-2.934-.507-.962-1.571-.962-1.166 0-1.774 1.06-.583 1.06-.583 3.033 0 .64.026.962l-3.928-.37q0-2.343 1.698-3.699Q103.626 0 106.717 0q2.99 0 4.688 1.085t1.697 3.057q0 1.554-1.038 2.639-1.04 1.06-2.914 1.455v.197q2.052.345 3.218 1.553 1.165 1.185 1.165 2.96 0 1.528-.861 2.662-.862 1.134-2.484 1.776-1.621.616-3.826.616M114.753 17.63v-.345h1.14q.938-.912.938-3.501V1.38q0-.394-.355-.666h-1.47V.37h6.031l5.296 11.86L131.02.37H137v.345h-1.47q-.354.27-.354.666v15.238q0 .395.354.666H137v.345h-8.083v-.345h1.47q.354-.27.354-.666V2.096l-6.207 15.657h-.355l-6.968-15.608v11.639q0 2.59.937 3.5h1.394v.346z"/></svg>