<svg width="240" height="16" viewBox="0 0 240 16" fill="none" xmlns="http://www.w3.org/2000/svg">
<path d="M0 8C0 7.44772 0.447715 7 1 7H107C107.552 7 108 7.44772 108 8C108 8.55228 107.552 9 107 9H1C0.447718 9 0 8.55228 0 8Z" fill="white" fill-opacity="0.5"/>
<path d="M120 1.5C123.59 1.5 126.5 4.41015 126.5 8C126.5 11.5899 123.59 14.5 120 14.5C116.41 14.5 113.5 11.5899 113.5 8C113.5 4.41015 116.41 1.5 120 1.5Z" stroke="white" stroke-width="3"/>
<path d="M132 8C132 7.44772 132.448 7 133 7H239C239.552 7 240 7.44772 240 8C240 8.55228 239.552 9 239 9H133C132.448 9 132 8.55228 132 8Z" fill="white" fill-opacity="0.1"/>
</svg>
